<svg xmlns="http://www.w3.org/2000/svg" width="256" height="256" viewBox="0 0 100 100"><rect width="100" height="100" rx="20" fill="#7d6ee7"></rect><path d="M47.79 58.10L47.79 58.10Q47.79 62.69 46.40 66.38Q45.00 70.07 42.26 72.68Q39.52 75.29 35.55 76.73Q31.59 78.17 26.47 78.17L26.47 78.17Q21.34 78.17 17.38 76.73Q13.42 75.29 10.72 72.68Q8.02 70.07 6.62 66.38Q5.23 62.69 5.23 58.10L5.23 58.10L5.23 22.46Q5.68 22.28 6.62 22.05Q7.57 21.83 8.65 21.83L8.65 21.83Q12.52 21.83 12.52 25.16L12.52 25.16L12.52 57.47Q12.52 61.07 13.60 63.77Q14.68 66.47 16.52 68.31Q18.37 70.16 20.93 71.06Q23.49 71.96 26.47 71.96L26.47 71.96Q29.43 71.96 32 71.06Q34.56 70.16 36.41 68.31Q38.25 66.47 39.34 63.77Q40.41 61.07 40.41 57.47L40.41 57.47L40.41 22.46Q40.86 22.28 41.81 22.05Q42.75 21.83 43.84 21.83L43.84 21.83Q47.79 21.83 47.79 25.16L47.79 25.16L47.79 58.10ZM81.72 40.28L81.72 40.28Q78.66 40.28 76.05 41.32Q73.44 42.35 71.55 44.38Q69.66 46.40 68.58 49.42Q67.50 52.43 67.50 56.30L67.50 56.30Q67.50 64.04 71.38 68.14Q75.24 72.23 81.72 72.23L81.72 72.23Q85.50 72.23 88.03 71.19Q90.54 70.16 92.52 68.81L92.52 68.81Q93.51 69.35 94.14 70.16Q94.77 70.97 94.77 72.14L94.77 72.14Q94.77 73.40 93.78 74.48Q92.79 75.56 91.04 76.37Q89.28 77.18 86.90 77.67Q84.51 78.17 81.72 78.17L81.72 78.17Q77.04 78.17 73.08 76.82Q69.13 75.47 66.24 72.77Q63.36 70.07 61.74 65.97Q60.13 61.88 60.13 56.30L60.13 56.30Q60.13 50.81 61.83 46.72Q63.54 42.62 66.42 39.83Q69.30 37.04 73.22 35.65Q77.13 34.25 81.54 34.25L81.54 34.25Q84.33 34.25 86.72 34.75Q89.10 35.24 90.81 36.14Q92.52 37.04 93.47 38.16Q94.41 39.29 94.41 40.46L94.41 40.46Q94.41 41.54 93.78 42.35Q93.16 43.16 92.16 43.61L92.16 43.61Q90.19 42.26 87.84 41.27Q85.50 40.28 81.72 40.28Z" fill="#fff"></path></svg>